<svg width="512" height="512" viewBox="0 0 512 512" fill="none" xmlns="http://www.w3.org/2000/svg">
<path d="M507.606 145.568L366.432 4.394C363.619 1.581 359.804 0 355.826 0H156.174C152.196 0 148.381 1.581 145.568 4.394L4.394 145.568C1.581 148.381 0 152.196 0 156.174V355.825C0 359.803 1.581 363.618 4.394 366.431L145.568 507.605C148.381 510.418 152.196 511.999 156.174 511.999H355.825C359.803 511.999 363.618 510.418 366.431 507.605L507.605 366.431C510.418 363.618 511.999 359.803 511.999 355.825V156.174C512 152.196 510.419 148.381 507.606 145.568V145.568Z" fill="white" fill-opacity="0.05"/>
<path d="M237.171 106H274.829C283.557 106 290.442 113.422 289.787 122.126L276.994 292.126C276.405 299.952 269.884 306 262.036 306H249.963C242.115 306 235.594 299.951 235.005 292.126L222.213 122.126C221.559 113.422 228.443 106 237.171 106V106Z" fill="#4C4960"/>
<path d="M226.051 375.95V376.05C226.051 392.591 239.46 406 256.001 406C272.542 406 285.951 392.591 285.951 376.05V375.95C285.951 359.409 272.542 346 256.001 346C239.46 346 226.051 359.409 226.051 375.95Z" fill="#4C4960"/>
</svg>
